<svg xmlns="http://www.w3.org/2000/svg" xmlns:xlink="http://www.w3.org/1999/xlink" width="500" zoomAndPan="magnify" viewBox="0 0 375 374.999991" height="500" preserveAspectRatio="xMidYMid meet" version="1.0"><defs><g/><clipPath id="864c4aed4e"><path d="M 105.816406 37.5 L 287 37.5 L 287 334.5 L 105.816406 334.5 Z M 105.816406 37.5 " clip-rule="nonzero"/></clipPath><clipPath id="43dbdc7b58"><path d="M 75.738281 118 L 231 118 L 231 337.617188 L 75.738281 337.617188 Z M 75.738281 118 " clip-rule="nonzero"/></clipPath><clipPath id="3aaee8cc47"><path d="M 76.875 224.929688 L 299.261719 224.929688 L 299.261719 270.972656 L 76.875 270.972656 Z M 76.875 224.929688 " clip-rule="nonzero"/></clipPath></defs><g clip-path="url(#864c4aed4e)"><path fill="#ffffff" d="M 105.816406 37.882812 L 105.816406 139.929688 C 107.523438 137.160156 109.4375 134.558594 111.53125 132.152344 L 111.53125 66.558594 C 186.738281 59.507812 266.976562 105.9375 266.976562 187.996094 C 266.976562 288.386719 202.097656 318.160156 149.03125 329.8125 L 149.03125 334.09375 C 295.585938 313.382812 286.476562 187.433594 286.476562 187.433594 C 286.476562 49.003906 138.925781 38.746094 111.53125 38.015625 L 111.53125 37.882812 Z M 105.816406 37.882812 " fill-opacity="1" fill-rule="nonzero"/></g><g clip-path="url(#43dbdc7b58)"><path fill="#ffffff" d="M 163.519531 118.183594 C 135.714844 117.980469 105.175781 135.777344 105.175781 172.128906 L 105.175781 305.929688 C 102.660156 310.832031 94.820312 323.070312 75.738281 332.367188 L 75.738281 337.816406 L 105.175781 337.695312 L 105.175781 337.816406 L 110.898438 337.816406 L 110.898438 337.695312 L 140.339844 337.816406 L 140.339844 332.367188 C 121.257812 323.070312 113.417969 310.84375 110.898438 305.929688 L 110.898438 286.402344 C 122.105469 294.910156 153.878906 315.433594 189.511719 304.960938 C 235.671875 291.402344 251.886719 213.316406 192.863281 202.410156 C 192.355469 202.808594 227.855469 166.355469 200.195312 133.257812 C 191.90625 123.34375 178.089844 118.292969 163.519531 118.183594 Z M 158.039062 129.578125 C 167.839844 129.675781 177.664062 133.125 185.871094 141.042969 C 210.769531 165.074219 172.65625 207.601562 172.65625 207.601562 C 172.65625 207.601562 221.019531 211.898438 218.117188 248.339844 C 214.351562 295.734375 155.304688 310.082031 110.898438 280.613281 L 110.898438 172.128906 C 110.898438 149.324219 133.101562 130.414062 156.078125 129.601562 C 156.734375 129.578125 157.386719 129.566406 158.039062 129.578125 Z M 158.039062 129.578125 " fill-opacity="1" fill-rule="nonzero"/></g><g clip-path="url(#3aaee8cc47)"><path fill="#ffffff" d="M 76.875 224.929688 L 299.355469 224.929688 L 299.355469 270.890625 L 76.875 270.890625 Z M 76.875 224.929688 " fill-opacity="1" fill-rule="nonzero"/></g><g fill="#000000" fill-opacity="1"><g transform="translate(86.642268, 255.56337)"><g><path d="M 1.984375 -15.421875 L 6.59375 -15.421875 C 8.5625 -15.421875 10.179688 -15.039062 11.453125 -14.28125 C 12.734375 -13.519531 13.660156 -12.535156 14.234375 -11.328125 C 14.816406 -10.117188 15.109375 -8.820312 15.109375 -7.4375 C 15.109375 -5.957031 14.757812 -4.648438 14.0625 -3.515625 C 13.363281 -2.390625 12.421875 -1.519531 11.234375 -0.90625 C 10.054688 -0.300781 8.765625 0 7.359375 0 L 1.984375 0 Z M 6.828125 -2.9375 C 8.410156 -2.9375 9.660156 -3.335938 10.578125 -4.140625 C 11.503906 -4.953125 11.96875 -6.117188 11.96875 -7.640625 C 11.96875 -8.867188 11.710938 -9.847656 11.203125 -10.578125 C 10.691406 -11.304688 10.097656 -11.8125 9.421875 -12.09375 C 8.742188 -12.375 8.101562 -12.515625 7.5 -12.515625 L 5.03125 -12.515625 L 5.03125 -2.9375 Z M 6.828125 -2.9375 "/></g></g></g><g fill="#000000" fill-opacity="1"><g transform="translate(108.46748, 255.56337)"><g><path d="M 9.625 -3.015625 L 4.5 -3.015625 L 3.25 0 L 0.25 0 L 7.203125 -16.03125 L 7.375 -16.03125 L 14.328125 0 L 10.8125 0 Z M 8.609375 -5.578125 L 7.125 -9.328125 L 5.578125 -5.578125 Z M 8.609375 -5.578125 "/></g></g></g><g fill="#000000" fill-opacity="1"><g transform="translate(128.721996, 255.56337)"><g><path d="M 5.03125 -15.421875 L 5.03125 0 L 1.984375 0 L 1.984375 -15.421875 Z M 5.03125 -15.421875 "/></g></g></g><g fill="#000000" fill-opacity="1"><g transform="translate(141.416202, 255.56337)"><g><path d="M 5.03125 -15.421875 L 5.03125 -2.9375 L 12.28125 -2.9375 L 12.28125 0 L 1.984375 0 L 1.984375 -15.421875 Z M 5.03125 -15.421875 "/></g></g></g><g fill="#000000" fill-opacity="1"><g transform="translate(160.518858, 255.56337)"><g><path d="M 14.8125 -15.421875 L 9.03125 -4.796875 L 9.03125 0 L 6 0 L 6 -4.796875 L 0.3125 -15.421875 L 4.0625 -15.421875 L 7.609375 -8.296875 L 11.0625 -15.421875 Z M 14.8125 -15.421875 "/></g></g></g><g fill="#000000" fill-opacity="1"><g transform="translate(181.317869, 255.56337)"><g/></g></g><g fill="#000000" fill-opacity="1"><g transform="translate(193.802643, 255.56337)"><g><path d="M 9.9375 -8.125 C 10.738281 -7.75 11.367188 -7.253906 11.828125 -6.640625 C 12.285156 -6.035156 12.515625 -5.335938 12.515625 -4.546875 C 12.515625 -2.984375 12 -1.832031 10.96875 -1.09375 C 9.9375 -0.363281 8.65625 0 7.125 0 L 1.984375 0 L 1.984375 -15.421875 L 6.515625 -15.421875 C 8.148438 -15.421875 9.4375 -15.085938 10.375 -14.421875 C 11.3125 -13.765625 11.78125 -12.804688 11.78125 -11.546875 C 11.78125 -10.773438 11.617188 -10.097656 11.296875 -9.515625 C 10.972656 -8.941406 10.519531 -8.476562 9.9375 -8.125 Z M 5.03125 -9.109375 L 6.875 -9.109375 C 7.425781 -9.109375 7.851562 -9.28125 8.15625 -9.625 C 8.46875 -9.96875 8.625 -10.390625 8.625 -10.890625 C 8.625 -11.410156 8.445312 -11.804688 8.09375 -12.078125 C 7.75 -12.347656 7.269531 -12.484375 6.65625 -12.484375 L 5.03125 -12.484375 Z M 6.984375 -2.828125 C 7.691406 -2.828125 8.265625 -2.96875 8.703125 -3.25 C 9.140625 -3.539062 9.359375 -3.972656 9.359375 -4.546875 C 9.359375 -5.640625 8.492188 -6.1875 6.765625 -6.1875 L 5.03125 -6.1875 L 5.03125 -2.828125 Z M 6.984375 -2.828125 "/></g></g></g><g fill="#000000" fill-opacity="1"><g transform="translate(213.030959, 255.56337)"><g><path d="M 5.03125 -15.421875 L 5.03125 -2.9375 L 12.28125 -2.9375 L 12.28125 0 L 1.984375 0 L 1.984375 -15.421875 Z M 5.03125 -15.421875 "/></g></g></g><g fill="#000000" fill-opacity="1"><g transform="translate(232.133616, 255.56337)"><g><path d="M 1.046875 -7.6875 C 1.046875 -9.082031 1.394531 -10.390625 2.09375 -11.609375 C 2.800781 -12.828125 3.757812 -13.796875 4.96875 -14.515625 C 6.175781 -15.234375 7.488281 -15.59375 8.90625 -15.59375 C 10.3125 -15.59375 11.617188 -15.234375 12.828125 -14.515625 C 14.035156 -13.796875 15 -12.828125 15.71875 -11.609375 C 16.4375 -10.390625 16.796875 -9.082031 16.796875 -7.6875 C 16.796875 -6.257812 16.4375 -4.945312 15.71875 -3.75 C 15 -2.550781 14.035156 -1.597656 12.828125 -0.890625 C 11.617188 -0.179688 10.3125 0.171875 8.90625 0.171875 C 7.476562 0.171875 6.160156 -0.179688 4.953125 -0.890625 C 3.753906 -1.597656 2.800781 -2.550781 2.09375 -3.75 C 1.394531 -4.945312 1.046875 -6.257812 1.046875 -7.6875 Z M 4.1875 -7.6875 C 4.1875 -6.789062 4.398438 -5.960938 4.828125 -5.203125 C 5.253906 -4.453125 5.832031 -3.859375 6.5625 -3.421875 C 7.300781 -2.984375 8.117188 -2.765625 9.015625 -2.765625 C 9.878906 -2.765625 10.664062 -2.984375 11.375 -3.421875 C 12.09375 -3.859375 12.648438 -4.453125 13.046875 -5.203125 C 13.453125 -5.953125 13.65625 -6.78125 13.65625 -7.6875 C 13.65625 -8.613281 13.445312 -9.453125 13.03125 -10.203125 C 12.613281 -10.953125 12.046875 -11.546875 11.328125 -11.984375 C 10.609375 -12.429688 9.804688 -12.65625 8.921875 -12.65625 C 8.046875 -12.65625 7.25 -12.429688 6.53125 -11.984375 C 5.8125 -11.546875 5.238281 -10.953125 4.8125 -10.203125 C 4.394531 -9.453125 4.1875 -8.613281 4.1875 -7.6875 Z M 4.1875 -7.6875 "/></g></g></g><g fill="#000000" fill-opacity="1"><g transform="translate(255.655188, 255.56337)"><g><path d="M 14.5 -1.546875 C 14.257812 -1.296875 13.835938 -1.035156 13.234375 -0.765625 C 12.628906 -0.492188 11.957031 -0.269531 11.21875 -0.09375 C 10.488281 0.0820312 9.820312 0.171875 9.21875 0.171875 C 7.582031 0.171875 6.144531 -0.144531 4.90625 -0.78125 C 3.675781 -1.414062 2.722656 -2.296875 2.046875 -3.421875 C 1.378906 -4.546875 1.046875 -5.828125 1.046875 -7.265625 C 1.046875 -9.066406 1.398438 -10.59375 2.109375 -11.84375 C 2.828125 -13.09375 3.785156 -14.03125 4.984375 -14.65625 C 6.179688 -15.28125 7.507812 -15.59375 8.96875 -15.59375 C 9.90625 -15.59375 10.785156 -15.484375 11.609375 -15.265625 C 12.429688 -15.054688 13.15625 -14.785156 13.78125 -14.453125 L 12.796875 -11.625 C 12.390625 -11.851562 11.832031 -12.0625 11.125 -12.25 C 10.425781 -12.4375 9.835938 -12.53125 9.359375 -12.53125 C 7.691406 -12.53125 6.410156 -12.109375 5.515625 -11.265625 C 4.628906 -10.429688 4.1875 -9.191406 4.1875 -7.546875 C 4.1875 -6.597656 4.398438 -5.769531 4.828125 -5.0625 C 5.265625 -4.351562 5.867188 -3.8125 6.640625 -3.4375 C 7.421875 -3.0625 8.304688 -2.875 9.296875 -2.875 C 10.253906 -2.875 10.960938 -3.003906 11.421875 -3.265625 L 11.421875 -5.140625 L 8.765625 -5.140625 L 8.765625 -8.0625 L 14.5 -8.0625 Z M 14.5 -1.546875 "/></g></g></g><g fill="#000000" fill-opacity="1"><g transform="translate(277.291908, 255.56337)"><g><path d="M 10.21875 -11.6875 C 8.882812 -12.425781 7.71875 -12.796875 6.71875 -12.796875 C 6.050781 -12.796875 5.53125 -12.660156 5.15625 -12.390625 C 4.789062 -12.128906 4.609375 -11.734375 4.609375 -11.203125 C 4.609375 -10.722656 4.875 -10.296875 5.40625 -9.921875 C 5.945312 -9.546875 6.664062 -9.191406 7.5625 -8.859375 C 8.289062 -8.597656 8.910156 -8.296875 9.421875 -7.953125 C 9.941406 -7.609375 10.375 -7.132812 10.71875 -6.53125 C 11.0625 -5.9375 11.234375 -5.175781 11.234375 -4.25 C 11.234375 -3.457031 11.023438 -2.722656 10.609375 -2.046875 C 10.203125 -1.367188 9.597656 -0.828125 8.796875 -0.421875 C 8.003906 -0.0234375 7.054688 0.171875 5.953125 0.171875 C 5.023438 0.171875 4.109375 0.0351562 3.203125 -0.234375 C 2.296875 -0.515625 1.453125 -0.929688 0.671875 -1.484375 L 2.015625 -3.859375 C 2.546875 -3.460938 3.148438 -3.140625 3.828125 -2.890625 C 4.515625 -2.640625 5.128906 -2.515625 5.671875 -2.515625 C 6.316406 -2.515625 6.875 -2.648438 7.34375 -2.921875 C 7.820312 -3.191406 8.0625 -3.632812 8.0625 -4.25 C 8.0625 -5.050781 7.316406 -5.742188 5.828125 -6.328125 C 4.941406 -6.679688 4.207031 -7.015625 3.625 -7.328125 C 3.039062 -7.648438 2.535156 -8.113281 2.109375 -8.71875 C 1.679688 -9.320312 1.46875 -10.078125 1.46875 -10.984375 C 1.46875 -12.304688 1.898438 -13.375 2.765625 -14.1875 C 3.640625 -15 4.804688 -15.4375 6.265625 -15.5 C 7.410156 -15.5 8.363281 -15.367188 9.125 -15.109375 C 9.894531 -14.859375 10.644531 -14.492188 11.375 -14.015625 Z M 10.21875 -11.6875 "/></g></g></g></svg>